<?xml version="1.0" encoding="utf-8"?>
<svg xmlns="http://www.w3.org/2000/svg" id="svg1" viewBox="0 0 60 60" _svgfile__filename="oldscale/actions/view_choose.svg" version="1.0" y="0" x="0">
  <path id="path1761" style="stroke-linejoin:round;stroke:#ffffff;stroke-linecap:round;stroke-width:8.3751;fill:none" transform="matrix(.97014 0 0 .97014 .84436 .15094)" d="m6.3262 4.6738c-1.3116 0-2.3674 1.3799-2.3674 3.094v46c0 1.714 1.0558 3.094 2.3674 3.094h47.45c1.311 0 2.367-1.38 2.367-3.094v-46c0-1.7143-1.056-3.0942-2.367-3.0942h-47.45z"/>
  <path id="path1128" style="fill-rule:evenodd;fill:#ffffff" transform="matrix(.97014 0 0 .97014 .84436 .15094)" d="m6.3262 4.6738c-1.3116 0-2.3674 1.3799-2.3674 3.094v46c0 1.714 1.0558 3.094 2.3674 3.094h47.45c1.311 0 2.367-1.38 2.367-3.094v-46c0-1.7143-1.056-3.0942-2.367-3.0942h-47.45z"/>
  <path id="rect922" d="M 7.048 5.075 C 5.818 5.075 4.827 6.198 4.827 7.596 L 4.827 12.026 C 4.827 13.422 5.818 14.547 7.048 14.547 L 52.543 14.547 C 53.775 14.547 54.766 13.422 54.766 12.026 L 54.766 7.596 C 54.766 6.198 53.775 5.075 52.543 5.075 L 7.048 5.075 Z" style="stroke-linejoin: round; fill-rule: evenodd; stroke-linecap: round; stroke-width: 3.125; fill: rgb(34, 150, 243);"/>
  <path id="rect1561" style="stroke-linejoin: round; stroke-linecap: round; fill: none; stroke: rgb(0, 0, 0); stroke-width: 2.06156px;" d="M 7.269 5 C 6.012 5 5 6.324 5 7.966 L 5 52.034 C 5 53.676 6.012 55 7.269 55 L 52.731 55 C 53.988 55 55 53.676 55 52.034 L 55 7.966 C 55 6.324 53.988 5 52.731 5 L 7.269 5 Z"/>
  <text style="font-family: &quot;Malgun Gothic&quot;; font-size: 24px; font-weight: 700; letter-spacing: -1px; white-space: pre;" transform="matrix(1.11835, 0, 0, 1.38793, -0.256631, -11.7956)" x="5.455" y="42.697">SQL</text>
  <path style="fill: rgb(216, 216, 216); stroke: rgb(0, 0, 0); stroke-width: 2px;" d="M 4 15 L 56 15"/>
  <ellipse style="stroke: rgb(0, 0, 0); fill: rgb(255, 255, 255);" cx="24.882" cy="10.04" rx="2.667" ry="2.667"/>
  <ellipse style="stroke: rgb(0, 0, 0); fill: rgb(255, 255, 255);" cx="17.233" cy="10.04" rx="2.667" ry="2.667"/>
  <ellipse style="stroke: rgb(0, 0, 0); fill: rgb(255, 255, 255);" cx="9.584" cy="10.04" rx="2.667" ry="2.667"/>
</svg>