<?xml version="1.0" encoding="utf-8"?>
<svg xmlns="http://www.w3.org/2000/svg" viewBox="0 0 500 500" xmlns:bx="https://boxy-svg.com">
  <defs>
    <bx:grid x="-25" y="-25" width="25" height="25"/>
  </defs>
  <rect width="500.002" height="500.002" style="fill: rgb(216, 216, 216); stroke: rgb(0, 0, 0); visibility: hidden; pointer-events: none;" rx="90.667" ry="90.667"/>
  <rect width="450" height="400" style="stroke-width: 0px; stroke: rgb(11, 76, 228); fill: rgb(11, 76, 228);" rx="41.142" ry="41.142" y="50" x="25"/>
  <rect x="50" y="125" width="400" height="300" style="stroke: rgb(0, 0, 0); fill: rgb(255, 255, 255); stroke-width: 0px;" rx="32.237" ry="32.237"/>
  <ellipse style="stroke-width: 0px; stroke: rgb(252, 241, 162); fill: rgb(255, 237, 104);" cx="62.5" cy="87.5" rx="12.5" ry="12.5"/>
  <ellipse style="stroke: rgb(0, 0, 0); stroke-width: 0px; fill: rgb(245, 125, 3);" cx="112.5" cy="87.5" rx="12.5" ry="12.5"/>
  <ellipse style="stroke: rgb(0, 0, 0); stroke-width: 0px; fill: rgb(7, 191, 251);" cx="162.5" cy="87.5" rx="12.5" ry="12.5"/>
  <ellipse style="stroke: rgb(0, 0, 0); stroke-width: 0px; fill: rgb(248, 255, 177);" cx="212.5" cy="87.5" rx="12.5" ry="12.5"/>
  <path d="M 147.063 349.785 C 140.61 349.785 134.297 349.109 128.124 347.756 C 121.951 346.403 116.149 344.423 110.721 341.815 C 105.292 339.207 100.437 336.068 96.157 332.397 L 107.976 310.565 C 113.187 315.009 119.205 318.438 126.03 320.853 C 132.855 323.268 139.866 324.476 147.063 324.476 C 155.377 324.476 161.829 323.01 166.42 320.08 C 171.011 317.15 173.306 313.012 173.306 307.667 L 173.306 307.571 C 173.306 303.835 172.283 300.872 170.235 298.683 C 168.188 296.493 165.52 294.883 162.233 293.853 C 158.944 292.823 154.725 291.889 149.575 291.051 C 149.389 290.987 149.218 290.954 149.063 290.954 C 148.908 290.954 148.738 290.922 148.552 290.859 L 146.504 290.569 C 137.446 289.087 129.939 287.236 123.983 285.014 C 118.026 282.792 112.97 278.896 108.813 273.325 C 104.656 267.755 102.578 259.849 102.578 249.609 L 102.578 249.513 C 102.578 240.432 104.532 232.672 108.441 226.232 C 112.35 219.792 118.026 214.881 125.472 211.5 C 132.917 208.119 141.913 206.429 152.46 206.429 C 157.3 206.429 162.247 207.009 167.304 208.168 C 172.361 209.327 177.309 211.001 182.148 213.19 C 186.987 215.38 191.578 218.021 195.921 221.112 L 185.126 243.524 C 179.914 239.788 174.47 236.89 168.793 234.83 C 163.116 232.769 157.672 231.738 152.46 231.738 C 144.643 231.738 138.594 233.075 134.313 235.747 C 130.032 238.42 127.892 242.171 127.892 247.002 L 127.892 247.097 C 127.892 251.155 129.009 254.359 131.242 256.71 C 133.476 259.061 136.236 260.783 139.524 261.878 C 142.813 262.972 147.435 264.131 153.39 265.355 C 153.639 265.42 153.887 265.468 154.135 265.5 C 154.384 265.532 154.632 265.581 154.88 265.645 C 155.252 265.709 155.609 265.79 155.951 265.887 C 156.292 265.983 156.648 266.064 157.02 266.128 C 165.582 267.867 172.733 269.976 178.472 272.456 C 184.211 274.936 189.004 278.928 192.85 284.434 C 196.697 289.94 198.62 297.459 198.62 306.991 L 198.62 307.184 C 198.62 316.135 196.604 323.799 192.571 330.175 C 188.538 336.55 182.66 341.412 174.936 344.761 C 167.211 348.11 157.92 349.785 147.063 349.785 Z M 260.78 309.405 L 274.368 291.534 L 326.67 332.687 L 313.083 350.655 L 260.78 309.405 Z M 264.782 349.785 C 254.979 349.785 246.34 347.644 238.864 343.361 C 231.387 339.079 225.601 333.025 221.507 325.2 C 217.412 317.375 215.365 308.311 215.365 298.007 L 215.365 258.207 C 215.365 247.903 217.412 238.839 221.507 231.014 C 225.601 223.189 231.387 217.135 238.864 212.853 C 246.34 208.57 254.979 206.429 264.782 206.429 C 274.585 206.429 283.225 208.57 290.701 212.853 C 298.177 217.135 303.962 223.189 308.058 231.014 C 312.152 238.839 314.199 247.903 314.199 258.207 L 314.199 298.007 C 314.199 308.311 312.152 317.375 308.058 325.2 C 303.962 333.025 298.177 339.079 290.701 343.361 C 283.225 347.644 274.585 349.785 264.782 349.785 Z M 264.782 323.316 C 269.373 323.316 273.406 322.302 276.88 320.274 C 280.355 318.245 283.038 315.363 284.931 311.627 C 286.823 307.892 287.769 303.577 287.769 298.683 L 287.769 257.53 C 287.769 252.636 286.823 248.321 284.931 244.586 C 283.038 240.851 280.355 237.969 276.88 235.94 C 273.406 233.911 269.373 232.897 264.782 232.897 C 260.19 232.897 256.158 233.911 252.683 235.94 C 249.209 237.969 246.526 240.851 244.634 244.586 C 242.742 248.321 241.796 252.636 241.796 257.53 L 241.796 298.683 C 241.796 303.577 242.742 307.892 244.634 311.627 C 246.526 315.363 249.209 318.245 252.683 320.274 C 256.158 322.302 260.19 323.316 264.782 323.316 Z M 343.421 207.878 L 368.921 207.878 L 368.921 348.336 L 343.421 348.336 L 343.421 207.878 Z M 354.775 322.833 L 434.065 322.833 L 434.065 348.336 L 354.775 348.336 L 354.775 322.833 Z" style="line-height: 241.212px; text-wrap-mode: nowrap;"/>
  <path d="M 61.841 294.376 L 87.341 294.376 L 87.341 312.358 L 61.841 312.358 L 61.841 294.376 Z M 61.841 244.894 L 87.341 244.894 L 87.341 262.875 L 61.841 262.875 L 61.841 244.894 Z" style="line-height: 241.212px; text-wrap-mode: nowrap;"/>
</svg>